# xmcd
#
# Track frame offsets:
# 150
# 14431
# 27693
# 36689
# 49962
# 59866
# 71365
# 82289
# 94764
# 107111
# 118944
# 129696
# 141027
# 151510
# 163665
# 177968
#
# Disc length: 2483 seconds
#
# Revision: 0
# Processed by: cddbd v1.5.2PL0 Copyright (c) Steve Scherf et al.
# Submitted via: Audion 2.5.0 (http://www.panic.com/audion/)
#
DISCID=f009b110
DTITLE=a journey into thyme (various) - a journey into thyme II (various)
DYEAR=1900
DGENRE=Blues
TTITLE0=faine jane...it aint true
TTITLE1=canterbury fair...song on a may morning
TTITLE2=the cryan shames...ben franklyns almanac
TTITLE3=haymarket riot...nine o'clock
TTITLE4=the 4 of us...i feel a whole lot better
TTITLE5=thee midniters...never knew i had it so bad
TTITLE6=the new breed...high society girl
TTITLE7=the roosters...one of these days
TTITLE8=the fifth order..goin too far
TTITLE9=fe-fi-four plus 2...mr. sweet stuff
TTITLE10=the rats...got to see my baby every day
TTITLE11=the esquires...sadies way
TTITLE12=the poets...now were through
TTITLE13=the hallmarks...soul shakin psychedellic sally
TTITLE14=the outcasts...i didnt have to love her anymore
TTITLE15=the rationals...feelin lost
EXTD=
EXTT0=
EXTT1=
EXTT2=
EXTT3=
EXTT4=
EXTT5=
EXTT6=
EXTT7=
EXTT8=
EXTT9=
EXTT10=
EXTT11=
EXTT12=
EXTT13=
EXTT14=
EXTT15=
PLAYORDER=
